<?xml version="1.0"?>
<svg xmlns="http://www.w3.org/2000/svg" xmlns:xlink="http://www.w3.org/1999/xlink" version="1.1" id="Capa_1" x="0px" y="0px" viewBox="0 0 512 512" style="enable-background:new 0 0 512 512;" xml:space="preserve" width="512px" height="512px"><g><g>
	<g>
		<path d="M251.733,102.4c-56.465,0-102.4,45.935-102.4,102.4c0,4.71,3.823,8.533,8.533,8.533H345.6    c4.719,0,8.533-3.823,8.533-8.533C354.133,148.335,308.198,102.4,251.733,102.4z M166.827,196.267    c4.292-43.059,40.738-76.8,84.907-76.8c44.177,0,80.614,33.741,84.907,76.8H166.827z" data-original="#000000" class="active-path" data-old_color="#000000" fill="#FE765E"/>
	</g>
</g><g>
	<g>
		<path d="M251.733,34.133c-23.526,0-42.667,19.14-42.667,42.667c0,23.526,19.14,42.667,42.667,42.667    c23.526,0,42.667-19.14,42.667-42.667C294.4,53.274,275.26,34.133,251.733,34.133z M251.733,102.4    c-14.114,0-25.6-11.486-25.6-25.6s11.486-25.6,25.6-25.6s25.6,11.486,25.6,25.6S265.847,102.4,251.733,102.4z" data-original="#000000" class="active-path" data-old_color="#000000" fill="#FE765E"/>
	</g>
</g><g>
	<g>
		<path d="M243.2,42.667h17.067c0-14.114,11.486-25.6,25.6-25.6V0C262.34,0,243.2,19.14,243.2,42.667z" data-original="#000000" class="active-path" data-old_color="#000000" fill="#FE765E"/>
	</g>
</g><g>
	<g>
		<path d="M294.4,128v59.733c0,4.702-3.823,8.533-8.533,8.533s-8.533-3.831-8.533-8.533v-25.6c0-14.114-11.486-25.6-25.6-25.6    s-25.6,11.486-25.6,25.6c0,4.702-3.831,8.533-8.533,8.533c-4.702,0-8.533-3.831-8.533-8.533V128H192v34.133    c0,14.114,11.486,25.6,25.6,25.6c14.114,0,25.6-11.486,25.6-25.6c0-4.702,3.831-8.533,8.533-8.533    c4.702,0,8.533,3.831,8.533,8.533v25.6c0,14.114,11.486,25.6,25.6,25.6s25.6-11.486,25.6-25.6V128H294.4z" data-original="#000000" class="active-path" data-old_color="#000000" fill="#FE765E"/>
	</g>
</g><g>
	<g>
		<path d="M388.267,196.267H123.733c-4.71,0-8.533,3.823-8.533,8.533v34.133c0,3.908,2.662,7.322,6.451,8.277    c18.253,4.591,32.853,18.679,38.118,36.847l27.665,92.049c9.327,30.251,36.847,50.56,68.489,50.56c0.026,0,0.06,0,0.085,0    c31.846-0.017,59.409-20.54,68.574-51.029l27.682-91.656c5.231-18.091,19.823-32.171,38.084-36.77    c3.789-0.956,6.451-4.369,6.451-8.277V204.8C396.8,200.09,392.986,196.267,388.267,196.267z M379.733,232.619    c-21.069,7.535-37.581,24.883-43.836,46.515l-27.656,91.571c-6.98,23.245-27.981,38.869-52.25,38.895c-0.026,0-0.043,0-0.068,0    c-24.107,0-45.082-15.471-52.164-38.46l-27.622-91.913c-6.298-21.717-22.801-39.074-43.87-46.609v-19.285h247.467V232.619z" data-original="#000000" class="active-path" data-old_color="#000000" fill="#FE765E"/>
	</g>
</g><g>
	<g>
		<path d="M277.333,460.8h-51.2c-23.526,0-42.667,19.14-42.667,42.667c0,4.719,3.823,8.533,8.533,8.533h119.467    c4.719,0,8.533-3.814,8.533-8.533C320,479.94,300.86,460.8,277.333,460.8z M201.993,494.933    c3.524-9.933,13.013-17.067,24.141-17.067h51.2c11.127,0,20.617,7.134,24.141,17.067H201.993z" data-original="#000000" class="active-path" data-old_color="#000000" fill="#FE765E"/>
	</g>
</g><g>
	<g>
		<rect x="243.2" y="418.133" width="17.067" height="51.2" data-original="#000000" class="active-path" data-old_color="#000000" fill="#FE765E"/>
	</g>
</g><g>
	<g>
		<path d="M322.5,232.9l-12.791,12.792c-8.448,8.414-22.17,8.414-30.618,0c-15.078-15.053-39.629-15.053-54.716,0    c-8.431,8.414-22.17,8.414-30.609,0.009l-12.8-12.8L168.9,244.966l12.809,12.809c7.543,7.526,17.451,11.281,27.358,11.281    c9.907,0,19.814-3.755,27.358-11.281c8.448-8.405,22.17-8.414,30.618,0c15.078,15.053,39.62,15.044,54.724-0.009l12.8-12.8    L322.5,232.9z" data-original="#000000" class="active-path" data-old_color="#000000" fill="#FE765E"/>
	</g>
</g></g> </svg>
