<?xml version="1.0"?>
<svg xmlns="http://www.w3.org/2000/svg" xmlns:xlink="http://www.w3.org/1999/xlink" version="1.1" id="Capa_1" x="0px" y="0px" viewBox="0 0 512 512" style="enable-background:new 0 0 512 512;" xml:space="preserve" width="512px" height="512px"><g><g>
	<g>
		<path d="M328.533,119.467h-268.8c-2.534,0-4.949,1.126-6.571,3.081c-1.621,1.954-2.287,4.531-1.818,7.023    c15.573,83.157,88.26,143.497,172.851,143.497c0.017,0,0.043,0,0.06,0h117.077c28.237,0,51.2,22.963,51.2,51.2    c0,28.237-22.963,51.2-51.2,51.2H119.467c-4.71,0-8.533,3.814-8.533,8.533c0,61.167,49.766,110.933,110.933,110.933h98.142    c105.805-0.051,191.94-86.187,191.991-192C512,201.771,429.696,119.467,328.533,119.467z M320,477.867h-98.133    c-48.888,0-89.156-37.555-93.483-85.333h212.949c37.641,0,68.267-30.626,68.267-68.267c0-37.641-30.626-68.267-68.267-68.267    H224.256c-0.009,0-0.026,0-0.051,0c-72.909,0-136.038-49.647-153.847-119.467h258.176c91.75,0,166.4,74.65,166.4,166.391    C494.882,399.343,416.41,477.815,320,477.867z" data-original="#000000" class="active-path" data-old_color="#000000" fill="#FE765E"/>
	</g>
</g><g>
	<g>
		<rect x="298.667" y="119.467" width="17.067" height="136.533" data-original="#000000" class="active-path" data-old_color="#000000" fill="#FE765E"/>
	</g>
</g><g>
	<g>
		<rect x="298.667" y="384" width="17.067" height="93.867" data-original="#000000" class="active-path" data-old_color="#000000" fill="#FE765E"/>
	</g>
</g><g>
	<g>
		<rect x="401.067" y="307.2" width="102.4" height="17.067" data-original="#000000" class="active-path" data-old_color="#000000" fill="#FE765E"/>
	</g>
</g><g>
	<g>
		
			<rect x="329.535" y="206.939" transform="matrix(0.7071 -0.7071 0.7071 0.7071 -35.5202 345.192)" width="138.776" height="17.066" data-original="#000000" class="active-path" data-old_color="#000000" fill="#FE765E"/>
	</g>
</g><g>
	<g>
		
			<rect x="392.468" y="361.285" transform="matrix(0.7071 -0.7071 0.7071 0.7071 -172.15 403.506)" width="17.067" height="96.545" data-original="#000000" class="active-path" data-old_color="#000000" fill="#FE765E"/>
	</g>
</g><g>
	<g>
		<path d="M162.133,119.467c-14.114,0-25.6,11.486-25.6,25.6c0,14.114,11.486,25.6,25.6,25.6s25.6-11.486,25.6-25.6    S176.247,119.467,162.133,119.467z M162.133,153.6c-4.702,0-8.533-3.831-8.533-8.533c0-4.702,3.831-8.533,8.533-8.533    c4.702,0,8.533,3.831,8.533,8.533C170.667,149.769,166.835,153.6,162.133,153.6z" data-original="#000000" class="active-path" data-old_color="#000000" fill="#FE765E"/>
	</g>
</g><g>
	<g>
		<rect x="128" y="426.667" width="179.2" height="17.067" data-original="#000000" class="active-path" data-old_color="#000000" fill="#FE765E"/>
	</g>
</g><g>
	<g>
		<path d="M315.733,267.861v-3.328h-17.067v3.328c0.009,22.127,10.999,42.684,29.389,54.963l9.489-14.182    C323.891,299.52,315.742,284.279,315.733,267.861z" data-original="#000000" class="active-path" data-old_color="#000000" fill="#FE765E"/>
	</g>
</g><g>
	<g>
		<path d="M264.533,267.861v-3.328h-17.067v3.328c0.009,22.127,10.999,42.684,29.389,54.963l9.489-14.182    C272.691,299.52,264.542,284.279,264.533,267.861z" data-original="#000000" class="active-path" data-old_color="#000000" fill="#FE765E"/>
	</g>
</g><g>
	<g>
		<path d="M213.333,267.861v-3.328h-17.067v3.328c0.009,22.127,10.991,42.675,29.389,54.963l9.489-14.182    C221.491,299.52,213.342,284.279,213.333,267.861z" data-original="#000000" class="active-path" data-old_color="#000000" fill="#FE765E"/>
	</g>
</g><g>
	<g>
		<path d="M162.133,267.861v-3.328h-17.067v3.328c0.009,22.127,10.991,42.675,29.389,54.963l9.489-14.182    C170.291,299.52,162.142,284.279,162.133,267.861z" data-original="#000000" class="active-path" data-old_color="#000000" fill="#FE765E"/>
	</g>
</g><g>
	<g>
		<path d="M110.933,34.133H512V17.067H110.933C49.766,17.067,0,66.833,0,128s49.766,110.933,110.933,110.933h8.533v-17.067h-8.533    c-51.755,0-93.867-42.112-93.867-93.867S59.179,34.133,110.933,34.133z" data-original="#000000" class="active-path" data-old_color="#000000" fill="#FE765E"/>
	</g>
</g><g>
	<g>
		<path d="M110.933,68.267H512V51.2H110.933C49.766,51.2,0,100.966,0,162.133s49.766,110.933,110.933,110.933h102.4V256h-102.4    c-51.755,0-93.867-42.112-93.867-93.867C17.067,110.379,59.179,68.267,110.933,68.267z" data-original="#000000" class="active-path" data-old_color="#000000" fill="#FE765E"/>
	</g>
</g><g>
	<g>
		<path d="M457.387,339.277c-9.643,38.767-38.067,69.333-76.032,81.758l5.299,16.213c43.588-14.259,76.22-49.348,87.296-93.858    L457.387,339.277z" data-original="#000000" class="active-path" data-old_color="#000000" fill="#FE765E"/>
	</g>
</g><g>
	<g>
		<path d="M432.256,211.567l-11.17,12.911c25.387,21.965,39.868,53.811,39.714,87.415v4.267h17.067h0.009v-4.233    C478.037,273.374,461.414,236.791,432.256,211.567z" data-original="#000000" class="active-path" data-old_color="#000000" fill="#FE765E"/>
	</g>
</g><g>
	<g>
		<path d="M345.839,179.2c-0.068,0-0.154,0-0.239,0h-12.8v17.067h12.817c0.068,0,0.136,0,0.205,0    c20.932,0,41.455,5.734,59.349,16.597l8.849-14.592C393.455,185.788,369.877,179.2,345.839,179.2z" data-original="#000000" class="active-path" data-old_color="#000000" fill="#FE765E"/>
	</g>
</g><g>
	<g>
		<path d="M312.312,442.027l-10.232-13.653l-68.267,51.2c-2.944,2.202-4.139,6.033-2.978,9.523s4.42,5.837,8.098,5.837H307.2    v-17.067h-42.667L312.312,442.027z" data-original="#000000" class="active-path" data-old_color="#000000" fill="#FE765E"/>
	</g>
</g></g> </svg>
